<mxfile host="Electron" agent="Mozilla/5.0 (X11; Linux x86_64) AppleWebKit/537.36 (KHTML, like Gecko) draw.io/28.0.4 Chrome/138.0.7204.97 Electron/37.2.1 Safari/537.36" version="28.0.4">
  <diagram name="Page-1" id="suoBtGgEANYbXbVHw2rL">
    <mxGraphModel dx="1111" dy="552" grid="1" gridSize="10" guides="1" tooltips="1" connect="1" arrows="1" fold="1" page="1" pageScale="1" pageWidth="850" pageHeight="1100" math="0" shadow="0">
      <root>
        <mxCell id="0" />
        <mxCell id="1" parent="0" />
        <mxCell id="iy57UkjjnLxhf_NylSwj-3" style="edgeStyle=orthogonalEdgeStyle;rounded=0;orthogonalLoop=1;jettySize=auto;html=1;" parent="1" source="iy57UkjjnLxhf_NylSwj-1" target="iy57UkjjnLxhf_NylSwj-2" edge="1">
          <mxGeometry relative="1" as="geometry" />
        </mxCell>
        <mxCell id="iy57UkjjnLxhf_NylSwj-6" style="edgeStyle=orthogonalEdgeStyle;rounded=0;orthogonalLoop=1;jettySize=auto;html=1;entryX=0.5;entryY=0;entryDx=0;entryDy=0;" parent="1" source="iy57UkjjnLxhf_NylSwj-1" target="iy57UkjjnLxhf_NylSwj-5" edge="1">
          <mxGeometry relative="1" as="geometry" />
        </mxCell>
        <mxCell id="iy57UkjjnLxhf_NylSwj-8" style="edgeStyle=orthogonalEdgeStyle;rounded=0;orthogonalLoop=1;jettySize=auto;html=1;entryX=0.5;entryY=0;entryDx=0;entryDy=0;" parent="1" source="iy57UkjjnLxhf_NylSwj-1" target="iy57UkjjnLxhf_NylSwj-7" edge="1">
          <mxGeometry relative="1" as="geometry" />
        </mxCell>
        <mxCell id="XmbwhB73pMSOdemntvVz-7" style="edgeStyle=orthogonalEdgeStyle;rounded=0;orthogonalLoop=1;jettySize=auto;html=1;entryX=0.5;entryY=0;entryDx=0;entryDy=0;" parent="1" source="iy57UkjjnLxhf_NylSwj-1" target="XmbwhB73pMSOdemntvVz-6" edge="1">
          <mxGeometry relative="1" as="geometry" />
        </mxCell>
        <mxCell id="tv_ducz8JUacjMTweFup-9" style="edgeStyle=orthogonalEdgeStyle;rounded=0;orthogonalLoop=1;jettySize=auto;html=1;entryX=0.5;entryY=0;entryDx=0;entryDy=0;" edge="1" parent="1" source="iy57UkjjnLxhf_NylSwj-1" target="tv_ducz8JUacjMTweFup-8">
          <mxGeometry relative="1" as="geometry" />
        </mxCell>
        <mxCell id="iy57UkjjnLxhf_NylSwj-1" value="Actor" style="shape=umlActor;verticalLabelPosition=bottom;verticalAlign=top;html=1;outlineConnect=0;" parent="1" vertex="1">
          <mxGeometry x="410" y="48" width="30" height="60" as="geometry" />
        </mxCell>
        <mxCell id="tv_ducz8JUacjMTweFup-4" value="" style="edgeStyle=orthogonalEdgeStyle;rounded=0;orthogonalLoop=1;jettySize=auto;html=1;" edge="1" parent="1" source="iy57UkjjnLxhf_NylSwj-2" target="tv_ducz8JUacjMTweFup-3">
          <mxGeometry relative="1" as="geometry" />
        </mxCell>
        <mxCell id="iy57UkjjnLxhf_NylSwj-2" value="Update post that they created." style="ellipse;whiteSpace=wrap;html=1;" parent="1" vertex="1">
          <mxGeometry x="355" y="188" width="140" height="70" as="geometry" />
        </mxCell>
        <mxCell id="tv_ducz8JUacjMTweFup-5" style="edgeStyle=orthogonalEdgeStyle;rounded=0;orthogonalLoop=1;jettySize=auto;html=1;entryX=1;entryY=0.5;entryDx=0;entryDy=0;exitX=0.5;exitY=1;exitDx=0;exitDy=0;" edge="1" parent="1" source="iy57UkjjnLxhf_NylSwj-5" target="tv_ducz8JUacjMTweFup-3">
          <mxGeometry relative="1" as="geometry" />
        </mxCell>
        <mxCell id="iy57UkjjnLxhf_NylSwj-5" value="Delete a post" style="ellipse;whiteSpace=wrap;html=1;" parent="1" vertex="1">
          <mxGeometry x="510" y="188" width="140" height="70" as="geometry" />
        </mxCell>
        <mxCell id="tv_ducz8JUacjMTweFup-2" style="edgeStyle=orthogonalEdgeStyle;rounded=0;orthogonalLoop=1;jettySize=auto;html=1;exitX=0.5;exitY=1;exitDx=0;exitDy=0;entryX=0.5;entryY=0;entryDx=0;entryDy=0;" edge="1" parent="1" source="iy57UkjjnLxhf_NylSwj-7" target="tv_ducz8JUacjMTweFup-1">
          <mxGeometry relative="1" as="geometry" />
        </mxCell>
        <mxCell id="iy57UkjjnLxhf_NylSwj-7" value="Read posts for lost/found items." style="ellipse;whiteSpace=wrap;html=1;" parent="1" vertex="1">
          <mxGeometry x="200" y="188" width="140" height="70" as="geometry" />
        </mxCell>
        <mxCell id="XmbwhB73pMSOdemntvVz-6" value="Create a post for a lost/found item." style="ellipse;whiteSpace=wrap;html=1;" parent="1" vertex="1">
          <mxGeometry x="30" y="183" width="160" height="80" as="geometry" />
        </mxCell>
        <mxCell id="XmbwhB73pMSOdemntvVz-8" value="&lt;font style=&quot;font-size: 24px;&quot;&gt;Eureka UML Use Case Diagram&lt;/font&gt;" style="text;html=1;align=center;verticalAlign=middle;whiteSpace=wrap;rounded=0;" parent="1" vertex="1">
          <mxGeometry x="250" y="10" width="350" height="30" as="geometry" />
        </mxCell>
        <mxCell id="tv_ducz8JUacjMTweFup-1" value="See posts organised as coordinates on a map." style="ellipse;whiteSpace=wrap;html=1;" vertex="1" parent="1">
          <mxGeometry x="200" y="288" width="140" height="70" as="geometry" />
        </mxCell>
        <mxCell id="tv_ducz8JUacjMTweFup-3" value="Password-protect individual posts" style="ellipse;whiteSpace=wrap;html=1;" vertex="1" parent="1">
          <mxGeometry x="355" y="288" width="140" height="70" as="geometry" />
        </mxCell>
        <mxCell id="tv_ducz8JUacjMTweFup-6" value="Create Read Update Delete" style="text;html=1;align=center;verticalAlign=middle;whiteSpace=wrap;rounded=0;" vertex="1" parent="1">
          <mxGeometry x="340" y="400" width="170" height="30" as="geometry" />
        </mxCell>
        <mxCell id="tv_ducz8JUacjMTweFup-8" value="Contact creator of post if they found/own a lost/found item" style="ellipse;whiteSpace=wrap;html=1;" vertex="1" parent="1">
          <mxGeometry x="670" y="188" width="140" height="78" as="geometry" />
        </mxCell>
      </root>
    </mxGraphModel>
  </diagram>
</mxfile>
